# xmcd CD database file
#
# Track frame offsets:
#	150
#	23617
#	49093
#	76882
#	92313
#	108900
#	130797
#	143852
#	165437
#
# Disc length: 2385 seconds
#
# Revision: 0
# Processed by: cddbd v1.5.1PL2 Copyright (c) Steve Scherf et al.
# Submitted via: CDex 1.51
#
DISCID=5e094f09
DTITLE=Sax Paris Jazz - Joue Charlie Parker - CD1
DYEAR=2004
DGENRE=Jazz
TTITLE0=Chi-Chi
TTITLE1=Cool Blues
TTITLE2=Barbados
TTITLE3=Parker's mood 2
TTITLE4=Au private
TTITLE5=Medley blues suédois "Sisi and Blues for Alice"
TTITLE6=Parker's mood 1
TTITLE7=Relaxin' at Camarillo's
TTITLE8=K.C. blues
EXTD=YEAR: 2004
EXTT0=
EXTT1=
EXTT2=
EXTT3=
EXTT4=
EXTT5=
EXTT6=
EXTT7=
EXTT8=
PLAYORDER=
